<svg xmlns="http://www.w3.org/2000/svg" width="36" height="36" viewBox="0 0 225 225" version="1.1">
	<path d="M 149.790 47.543 C 146.099 49.437, 139.574 52.165, 135.290 53.605 C 128.513 55.882, 126.200 56.178, 117.500 55.877 C 95.670 55.123, 87.966 55.631, 78.522 58.447 C 73.584 59.919, 67.322 62.333, 64.606 63.811 C 57.701 67.569, 49.543 75.942, 42.498 86.503 C 36.897 94.899, 35.405 96.325, 20.175 107.844 C 11.199 114.633, 4.035 120.368, 4.255 120.589 C 4.476 120.809, 8.643 119.642, 13.516 117.995 C 18.388 116.348, 22.538 115, 22.737 115 C 22.936 115, 19.454 119.500, 14.999 125.001 L 6.900 135.002 9.606 138.551 C 11.095 140.502, 14.293 143.259, 16.713 144.678 C 20.358 146.814, 21.887 147.150, 25.625 146.638 C 28.634 146.225, 31.042 146.487, 32.853 147.424 C 36.305 149.209, 43.013 150.495, 42.959 149.361 C 42.937 148.888, 41.590 146.945, 39.965 145.044 C 36.296 140.752, 37.335 139.501, 42.930 141.475 L 47.221 142.989 46.541 139.369 C 45.890 135.897, 45.964 135.774, 48.338 136.370 C 49.700 136.712, 51.509 137.258, 52.359 137.584 C 53.633 138.073, 53.802 137.552, 53.324 134.606 C 52.895 131.963, 53.134 130.886, 54.246 130.459 C 55.215 130.087, 57.125 124.561, 59.624 114.893 L 63.500 99.904 78.842 89.378 C 87.280 83.588, 94.373 79.039, 94.603 79.270 C 94.833 79.500, 93.420 82.889, 91.463 86.801 C 87.259 95.205, 80.936 101.245, 73.706 103.765 C 67.696 105.859, 64.500 110.088, 63.017 117.910 C 61.321 126.852, 61.379 127, 66.540 127 C 77.239 127, 87 137.220, 87 148.422 C 87 152.214, 81.575 157, 77.277 157 C 74.347 157, 74 157.299, 74 159.827 C 74 162.382, 73.720 162.612, 71.076 162.225 C 68.482 161.844, 68.116 162.117, 67.826 164.648 C 67.403 168.348, 64.554 168.798, 58.887 166.060 C 56.543 164.927, 54.484 164, 54.312 164 C 53.314 164, 54.284 168.636, 55.977 171.955 C 58.516 176.931, 66.792 181.213, 75.025 181.808 C 81.643 182.287, 80.795 182.672, 100 170.472 C 123.194 155.738, 125.444 154.777, 155 146.965 C 169.575 143.112, 182.245 139.728, 183.155 139.443 C 184.747 138.945, 192.456 121.122, 191.494 120.161 C 191.247 119.914, 182.148 122.032, 171.273 124.867 C 160.398 127.703, 151.162 130.017, 150.750 130.011 C 150.338 130.005, 150 126.472, 150 122.161 L 150 114.322 174.633 107.856 L 199.267 101.389 203.024 91.695 C 205.090 86.363, 206.377 82, 205.884 82 C 205.390 82, 193.131 85.150, 178.640 89 C 164.149 92.850, 151.777 96, 151.147 96 C 150.382 96, 150 93.399, 150 88.203 L 150 80.405 181.915 72.054 L 213.829 63.702 216.895 55.601 C 220.863 45.116, 220.964 44.436, 218.500 44.778 C 217.400 44.931, 202.438 48.794, 185.250 53.363 C 168.063 57.932, 154 61.604, 154 61.523 C 154 61.442, 154.900 59.513, 156 57.236 C 157.921 53.261, 158.803 43.947, 157.250 44.049 C 156.838 44.076, 153.480 45.648, 149.790 47.543 M 119.547 97.957 C 113.893 99.551, 113.496 99.874, 111.660 104.348 C 110.596 106.939, 109.919 109.253, 110.155 109.489 C 110.392 109.725, 113.210 109.139, 116.419 108.186 C 121.971 106.538, 122.345 106.220, 124.161 101.595 C 125.211 98.923, 125.942 96.634, 125.785 96.507 C 125.628 96.381, 122.821 97.034, 119.547 97.957 M 132.500 109.023 C 126.700 110.614, 126.441 110.829, 124.718 115.469 C 123.738 118.109, 123.083 120.417, 123.264 120.598 C 123.787 121.120, 134.222 118.188, 134.998 117.301 C 135.883 116.290, 139.185 107.815, 138.792 107.564 C 138.631 107.461, 135.800 108.118, 132.500 109.023 M 114.641 112.887 C 108.966 114.449, 108.722 114.657, 106.891 119.500 C 105.852 122.250, 105.001 124.551, 105.001 124.614 C 105 124.676, 107.843 124.047, 111.318 123.216 C 117.601 121.712, 117.645 121.676, 119.392 116.759 C 120.358 114.040, 121.002 111.693, 120.824 111.544 C 120.646 111.396, 117.863 112, 114.641 112.887" stroke="none" fill="#000000" fill-rule="evenodd"/>
</svg>