<svg xmlns="http://www.w3.org/2000/svg" width="36" height="36" viewBox="0 0 2400 2428" version="1.1">
	<path d="M 1132 1.078 C 910.916 10.271, 695.710 80.541, 512 203.523 C 287.797 353.613, 119.431 573.517, 34.644 827 C 22.420 863.547, 7.986 914.868, 8.017 921.679 C 8.106 941.082, 22.241 962.989, 40.164 971.501 C 54.919 978.508, 34.998 978.051, 313.242 977.762 L 564.500 977.500 571.240 975.213 C 574.947 973.955, 580.797 971, 584.240 968.647 C 594.962 961.319, 600.159 953.951, 613.353 927.375 C 627.651 898.575, 637.503 881.223, 652.745 858 C 706.222 776.520, 777.981 708.230, 861 659.813 C 941.098 613.099, 1023.846 586.348, 1119.421 576.269 C 1143.192 573.762, 1215.765 573.790, 1239.500 576.316 C 1296.162 582.345, 1345.488 593.494, 1394.970 611.457 C 1530.012 660.478, 1645.412 755.241, 1720.172 878.500 C 1815.200 1035.176, 1837.357 1226.056, 1780.821 1401 C 1732.908 1549.262, 1628.876 1677.153, 1492.869 1754.990 C 1414.662 1799.747, 1331.031 1826.119, 1237 1835.674 C 1214.933 1837.916, 1148.218 1838.225, 1126.500 1836.185 C 1056.415 1829.604, 993.867 1814.019, 931 1787.474 C 913.451 1780.064, 873.340 1759.531, 856 1749.082 C 748.889 1684.537, 666.263 1594.488, 610.087 1481.078 C 604.683 1470.167, 598.878 1459.230, 597.187 1456.772 C 589.974 1446.289, 577.140 1437.595, 565.201 1435.105 C 558.117 1433.628, 63.792 1433.530, 55.886 1435.004 C 35.173 1438.867, 17.051 1454.540, 10.878 1473.928 C 7.911 1483.248, 7.166 1498.653, 9.465 1503.139 C 10.412 1504.988, 13.407 1514.600, 16.120 1524.500 C 50.744 1650.857, 104.749 1769.318, 177.500 1878.494 C 222.152 1945.502, 266.576 2000.116, 322.995 2057.365 C 420.106 2155.902, 524.406 2231.785, 646 2292.368 C 727.755 2333.101, 805.987 2361.905, 893.500 2383.496 C 1114.975 2438.138, 1348.549 2428.930, 1564 2357.064 C 1646.835 2329.434, 1728.576 2291.851, 1803 2247.176 C 2095.754 2071.446, 2301.959 1779.989, 2368.427 1447.982 C 2385.637 1362.020, 2392.951 1281.645, 2391.676 1192.500 C 2390.743 1127.316, 2386.326 1075.761, 2376.496 1015.330 C 2339.286 786.582, 2238.316 576.146, 2081.938 401.427 C 2064.290 381.710, 2011.497 328.833, 1992 311.348 C 1912.223 239.800, 1826.876 180.882, 1733.500 132.897 C 1548.480 37.816, 1341.155 -7.620, 1132 1.078 M 1150 924.496 C 1056.468 935.886, 976.413 989.723, 931.159 1071.665 C 896.193 1134.978, 886.870 1211.731, 905.519 1282.754 C 923.998 1353.126, 970.348 1415.434, 1032.684 1453.699 C 1046.356 1462.092, 1070.089 1473.572, 1085 1479.006 C 1133.536 1496.692, 1188.968 1500.615, 1241 1490.047 C 1334.679 1471.019, 1413.706 1404.612, 1449.311 1315 C 1462.853 1280.919, 1469.014 1247.921, 1469.035 1209.364 C 1469.060 1162.824, 1460.304 1124.831, 1440.027 1083.500 C 1425.641 1054.176, 1409.729 1031.664, 1387.131 1008.662 C 1340.500 961.198, 1281.400 932.228, 1215.465 924.515 C 1199.760 922.678, 1165.010 922.668, 1150 924.496" stroke="none" fill="#000000" fill-rule="evenodd"/>
</svg>